<?xml version="1.0" standalone="no"?>
<!DOCTYPE svg PUBLIC "-//W3C//DTD SVG 20010904//EN"
 "http://www.w3.org/TR/2001/REC-SVG-20010904/DTD/svg10.dtd">
<svg version="1.0" xmlns="http://www.w3.org/2000/svg"
 width="2000.000000pt" height="2000.000000pt" viewBox="0 0 2000.000000 2000.000000"
 preserveAspectRatio="xMidYMid meet">
<metadata>
Created by potrace 1.14, written by Peter Selinger 2001-2017
</metadata>
<g transform="translate(0.000000,2000.000000) scale(0.100000,-0.100000)"
fill="#000000" stroke="none">
<path d="M300 19421 c-172 -55 -288 -206 -296 -383 -5 -123 -32 -59 438 -1018
72 -146 192 -391 268 -545 76 -154 202 -410 280 -570 160 -326 353 -719 535
-1090 67 -137 188 -383 267 -545 80 -162 197 -401 261 -530 63 -129 190 -388
282 -575 92 -187 220 -448 285 -580 65 -132 182 -370 260 -530 78 -159 198
-402 265 -540 67 -137 193 -394 280 -570 87 -176 215 -437 285 -580 70 -143
196 -399 280 -570 84 -170 203 -413 265 -540 133 -273 327 -666 530 -1080 81
-165 200 -408 265 -540 65 -132 191 -388 280 -570 89 -181 218 -442 285 -580
127 -259 301 -613 545 -1110 78 -159 199 -405 268 -545 230 -469 378 -773 532
-1085 84 -170 210 -427 280 -570 70 -143 189 -386 265 -540 369 -751 561
-1143 800 -1630 259 -529 343 -694 395 -771 225 -338 559 -561 966 -645 110
-23 365 -33 469 -19 85 12 137 20 157 26 10 3 30 7 45 10 55 10 210 67 294
109 251 124 444 295 598 530 50 76 98 172 441 870 81 165 206 420 279 567 72
147 131 269 131 272 0 2 16 32 35 65 19 34 34 64 35 66 0 6 118 247 345 710
192 390 366 745 535 1090 135 275 345 703 578 1175 77 157 194 395 260 530
171 349 375 764 557 1135 87 176 217 442 290 590 73 149 194 396 270 550 76
154 188 384 250 510 62 127 186 379 275 560 89 182 221 449 292 595 72 146
196 398 275 560 80 162 198 403 263 535 65 132 186 380 270 550 84 171 215
438 292 595 135 274 232 471 546 1110 79 162 200 408 267 545 68 138 193 394
280 570 87 176 208 424 270 550 108 221 216 440 545 1110 84 171 210 427 280
570 70 143 192 391 270 550 706 1436 633 1280 636 1355 4 135 -70 241 -199
285 -39 13 -91 16 -289 14 -208 -1 -248 -4 -296 -20 -154 -53 -198 -104 -343
-397 -329 -668 -519 -1053 -628 -1277 -67 -137 -126 -257 -132 -265 -5 -8 -18
-33 -28 -55 -10 -22 -103 -211 -206 -420 -103 -209 -267 -542 -365 -740 -98
-198 -262 -531 -365 -740 -209 -423 -436 -884 -680 -1380 -89 -181 -254 -514
-365 -740 -111 -225 -271 -549 -355 -720 -84 -170 -237 -481 -340 -690 -103
-209 -261 -528 -350 -710 -89 -181 -251 -510 -360 -730 -109 -220 -272 -551
-363 -735 -90 -184 -246 -499 -345 -700 -99 -201 -257 -522 -352 -715 -95
-192 -261 -530 -370 -750 -109 -220 -275 -559 -371 -752 -95 -194 -192 -385
-215 -425 -205 -353 -534 -600 -934 -702 -191 -48 -440 -56 -648 -21 -189 33
-404 121 -578 236 -124 83 -312 271 -396 398 -59 89 -168 304 -653 1286 -114
231 -308 623 -430 870 -122 248 -311 630 -420 850 -109 220 -304 616 -435 880
-131 264 -324 656 -430 870 -106 215 -295 597 -420 850 -125 253 -310 627
-410 830 -100 204 -296 600 -435 880 -139 281 -339 686 -445 900 -106 215
-297 602 -425 860 -128 259 -318 643 -422 855 -377 763 -610 1234 -848 1715
-133 270 -325 657 -426 861 -164 333 -188 377 -236 425 -61 61 -140 104 -218
119 -35 7 -592 10 -1584 9 -1433 0 -1535 -1 -1586 -18z"/>
</g>
</svg>
